<svg xmlns="http://www.w3.org/2000/svg" width="640" height="880" viewBox="0 0 640 880">
  <defs>
    <linearGradient id="bg" x1="0" y1="0" x2="0" y2="1">
      <stop offset="0" stop-color="#241436"/>
      <stop offset="0.55" stop-color="#4a2b6e"/>
      <stop offset="1" stop-color="#241436"/>
    </linearGradient>
    <radialGradient id="halo" cx="0.5" cy="0.42" r="0.55">
      <stop offset="0" stop-color="#c99aff" stop-opacity="0.55"/>
      <stop offset="0.55" stop-color="#c99aff" stop-opacity="0.18"/>
      <stop offset="1" stop-color="#c99aff" stop-opacity="0"/>
    </radialGradient>
    <linearGradient id="blade" x1="0" y1="0" x2="1" y2="0">
      <stop offset="0" stop-color="#ffffff"/>
      <stop offset="0.5" stop-color="#c99aff"/>
      <stop offset="1" stop-color="#4a2b6e"/>
    </linearGradient>
    <linearGradient id="cloak" x1="0" y1="0" x2="0" y2="1">
      <stop offset="0" stop-color="#221a3c"/>
      <stop offset="1" stop-color="#120e22"/>
    </linearGradient>
    <radialGradient id="vig" cx="0.5" cy="0.45" r="0.75">
      <stop offset="0.6" stop-color="#000" stop-opacity="0"/>
      <stop offset="1" stop-color="#000" stop-opacity="0.55"/>
    </radialGradient>
    <filter id="glowF" x="-80%" y="-80%" width="260%" height="260%">
      <feGaussianBlur stdDeviation="6" result="b"/>
      <feMerge><feMergeNode in="b"/><feMergeNode in="SourceGraphic"/></feMerge>
    </filter>
    <filter id="glowS" x="-40%" y="-40%" width="180%" height="180%">
      <feGaussianBlur stdDeviation="3" result="b"/>
      <feMerge><feMergeNode in="b"/><feMergeNode in="SourceGraphic"/></feMerge>
    </filter>
    <filter id="soft" x="-30%" y="-30%" width="160%" height="160%">
      <feGaussianBlur stdDeviation="10"/>
    </filter>
  </defs>

  <rect width="640" height="880" fill="url(#bg)"/>
  <path d="M0 610 L150 470 L300 600 L450 480 L640 615 Z" fill="#000" opacity="0.28"/>
  <ellipse cx="320" cy="400" rx="250" ry="270" fill="url(#halo)"/>

  <!-- 地面霧光 -->
  <ellipse cx="320" cy="712" rx="300" ry="58" fill="#c99aff" opacity="0.1" filter="url(#soft)"/>

  <!-- 人物剪影 -->
  <g>
    <path d="M320 268 C246 284 210 356 200 470 C190 588 206 648 228 672 L412 672 C434 648 450 588 440 470 C430 356 394 284 320 268 Z"
          fill="url(#cloak)"/>
    <path d="M376 262 C416 310 442 386 440 470 C438 520 432 560 424 592"
          stroke="#c99aff" stroke-width="7" fill="none" opacity="0.5" filter="url(#glowS)" stroke-linecap="round"/>
    
    <circle cx="320" cy="298" r="60" fill="url(#cloak)"/>
    <ellipse cx="320" cy="312" rx="42" ry="47" fill="#0c0918"/>
    <circle cx="301" cy="314" r="8" fill="#c99aff" filter="url(#glowF)"/>
    <circle cx="339" cy="314" r="8" fill="#c99aff" filter="url(#glowF)"/>
    
      <ellipse cx="320" cy="216" rx="54" ry="14" fill="none" stroke="#c99aff" stroke-width="5" opacity="0.7" filter="url(#glowS)" transform="rotate(-9 320 216)"/>
  </g>
  
    <g>
      <rect x="432" y="330" width="13" height="330" rx="6" fill="#241b3d"/>
      <rect x="432" y="330" width="13" height="330" rx="6" fill="none" stroke="#c99aff" stroke-width="2" opacity="0.35"/>
      <circle cx="438" cy="308" r="30" fill="#c99aff" opacity="0.95" filter="url(#glowF)"/>
      <circle cx="438" cy="308" r="14" fill="#fff" opacity="0.9"/>
      <circle cx="438" cy="308" r="44" fill="none" stroke="#c99aff" stroke-width="3" opacity="0.4"/>
    </g>
  <circle cx="598" cy="623" r="4.9" fill="#e6ccff" opacity="0.29"/><circle cx="369" cy="236" r="4.4" fill="#e6ccff" opacity="0.30"/><circle cx="453" cy="350" r="3.6" fill="#e6ccff" opacity="0.67"/><circle cx="228" cy="290" r="3.5" fill="#e6ccff" opacity="0.50"/><circle cx="430" cy="152" r="2.3" fill="#e6ccff" opacity="0.33"/><circle cx="474" cy="133" r="2.4" fill="#e6ccff" opacity="0.60"/><circle cx="505" cy="661" r="4.2" fill="#e6ccff" opacity="0.57"/><circle cx="350" cy="414" r="4.3" fill="#e6ccff" opacity="0.33"/><circle cx="549" cy="320" r="3.6" fill="#e6ccff" opacity="0.39"/><circle cx="174" cy="154" r="2.0" fill="#e6ccff" opacity="0.52"/><circle cx="245" cy="299" r="1.9" fill="#e6ccff" opacity="0.59"/><circle cx="440" cy="406" r="4.5" fill="#e6ccff" opacity="0.40"/><circle cx="451" cy="604" r="3.4" fill="#e6ccff" opacity="0.41"/><circle cx="108" cy="306" r="2.8" fill="#e6ccff" opacity="0.24"/>
  <rect width="640" height="880" fill="url(#vig)"/>
</svg>
