<svg xmlns="http://www.w3.org/2000/svg" width="640" height="880" viewBox="0 0 640 880">
  <defs>
    <linearGradient id="bg" x1="0" y1="0" x2="0" y2="1">
      <stop offset="0" stop-color="#14322a"/>
      <stop offset="0.55" stop-color="#2e6b4f"/>
      <stop offset="1" stop-color="#14322a"/>
    </linearGradient>
    <radialGradient id="halo" cx="0.5" cy="0.42" r="0.55">
      <stop offset="0" stop-color="#8ef2ae" stop-opacity="0.55"/>
      <stop offset="0.55" stop-color="#8ef2ae" stop-opacity="0.18"/>
      <stop offset="1" stop-color="#8ef2ae" stop-opacity="0"/>
    </radialGradient>
    <linearGradient id="blade" x1="0" y1="0" x2="1" y2="0">
      <stop offset="0" stop-color="#ffffff"/>
      <stop offset="0.5" stop-color="#8ef2ae"/>
      <stop offset="1" stop-color="#2e6b4f"/>
    </linearGradient>
    <linearGradient id="cloak" x1="0" y1="0" x2="0" y2="1">
      <stop offset="0" stop-color="#221a3c"/>
      <stop offset="1" stop-color="#120e22"/>
    </linearGradient>
    <radialGradient id="vig" cx="0.5" cy="0.45" r="0.75">
      <stop offset="0.6" stop-color="#000" stop-opacity="0"/>
      <stop offset="1" stop-color="#000" stop-opacity="0.55"/>
    </radialGradient>
    <filter id="glowF" x="-80%" y="-80%" width="260%" height="260%">
      <feGaussianBlur stdDeviation="6" result="b"/>
      <feMerge><feMergeNode in="b"/><feMergeNode in="SourceGraphic"/></feMerge>
    </filter>
    <filter id="glowS" x="-40%" y="-40%" width="180%" height="180%">
      <feGaussianBlur stdDeviation="3" result="b"/>
      <feMerge><feMergeNode in="b"/><feMergeNode in="SourceGraphic"/></feMerge>
    </filter>
    <filter id="soft" x="-30%" y="-30%" width="160%" height="160%">
      <feGaussianBlur stdDeviation="10"/>
    </filter>
  </defs>

  <rect width="640" height="880" fill="url(#bg)"/>
  <path d="M0 610 L150 470 L300 600 L450 480 L640 615 Z" fill="#000" opacity="0.28"/>
  <ellipse cx="320" cy="400" rx="250" ry="270" fill="url(#halo)"/>

  <!-- 地面霧光 -->
  <ellipse cx="320" cy="712" rx="300" ry="58" fill="#8ef2ae" opacity="0.1" filter="url(#soft)"/>

  <!-- 人物剪影 -->
  <g>
    <path d="M320 268 C246 284 210 356 200 470 C190 588 206 648 228 672 L412 672 C434 648 450 588 440 470 C430 356 394 284 320 268 Z"
          fill="url(#cloak)"/>
    <path d="M376 262 C416 310 442 386 440 470 C438 520 432 560 424 592"
          stroke="#8ef2ae" stroke-width="7" fill="none" opacity="0.5" filter="url(#glowS)" stroke-linecap="round"/>
    
    <circle cx="320" cy="298" r="60" fill="url(#cloak)"/>
    <ellipse cx="320" cy="312" rx="42" ry="47" fill="#0c0918"/>
    <circle cx="301" cy="314" r="8" fill="#8ef2ae" filter="url(#glowF)"/>
    <circle cx="339" cy="314" r="8" fill="#8ef2ae" filter="url(#glowF)"/>
    
      <path d="M276 250 C240 232 218 200 214 160 C246 186 272 214 292 240 Z" fill="#241b3d"/>
      <path d="M364 250 C400 232 422 200 426 160 C394 186 368 214 348 240 Z" fill="#241b3d"/>
      <path d="M276 250 C240 232 218 200 214 160" stroke="#8ef2ae" stroke-width="3" fill="none" opacity="0.55"/>
      <path d="M364 250 C400 232 422 200 426 160" stroke="#8ef2ae" stroke-width="3" fill="none" opacity="0.55"/>
  </g>
  
    <g>
      <rect x="432" y="330" width="13" height="330" rx="6" fill="#241b3d"/>
      <rect x="432" y="330" width="13" height="330" rx="6" fill="none" stroke="#8ef2ae" stroke-width="2" opacity="0.35"/>
      <circle cx="438" cy="308" r="30" fill="#8ef2ae" opacity="0.95" filter="url(#glowF)"/>
      <circle cx="438" cy="308" r="14" fill="#fff" opacity="0.9"/>
      <circle cx="438" cy="308" r="44" fill="none" stroke="#8ef2ae" stroke-width="3" opacity="0.4"/>
    </g>
  <circle cx="289" cy="584" r="4.2" fill="#d8ffb0" opacity="0.59"/><circle cx="292" cy="266" r="4.5" fill="#d8ffb0" opacity="0.22"/><circle cx="409" cy="257" r="4.3" fill="#d8ffb0" opacity="0.48"/><circle cx="227" cy="447" r="2.3" fill="#d8ffb0" opacity="0.19"/><circle cx="49" cy="464" r="3.0" fill="#d8ffb0" opacity="0.41"/><circle cx="385" cy="430" r="3.4" fill="#d8ffb0" opacity="0.67"/><circle cx="410" cy="393" r="3.8" fill="#d8ffb0" opacity="0.59"/><circle cx="564" cy="623" r="2.0" fill="#d8ffb0" opacity="0.55"/><circle cx="574" cy="306" r="3.1" fill="#d8ffb0" opacity="0.25"/><circle cx="576" cy="120" r="1.9" fill="#d8ffb0" opacity="0.33"/><circle cx="274" cy="528" r="3.9" fill="#d8ffb0" opacity="0.30"/><circle cx="165" cy="365" r="3.1" fill="#d8ffb0" opacity="0.23"/><circle cx="42" cy="474" r="1.8" fill="#d8ffb0" opacity="0.60"/><circle cx="222" cy="443" r="2.2" fill="#d8ffb0" opacity="0.55"/>
  <rect width="640" height="880" fill="url(#vig)"/>
</svg>
