<svg xmlns="http://www.w3.org/2000/svg" width="640" height="880" viewBox="0 0 640 880">
  <defs>
    <linearGradient id="bg" x1="0" y1="0" x2="0" y2="1">
      <stop offset="0" stop-color="#3a1424"/>
      <stop offset="0.55" stop-color="#87343c"/>
      <stop offset="1" stop-color="#3a1424"/>
    </linearGradient>
    <radialGradient id="halo" cx="0.5" cy="0.42" r="0.55">
      <stop offset="0" stop-color="#ff9a66" stop-opacity="0.55"/>
      <stop offset="0.55" stop-color="#ff9a66" stop-opacity="0.18"/>
      <stop offset="1" stop-color="#ff9a66" stop-opacity="0"/>
    </radialGradient>
    <linearGradient id="blade" x1="0" y1="0" x2="1" y2="0">
      <stop offset="0" stop-color="#ffffff"/>
      <stop offset="0.5" stop-color="#ff9a66"/>
      <stop offset="1" stop-color="#87343c"/>
    </linearGradient>
    <linearGradient id="cloak" x1="0" y1="0" x2="0" y2="1">
      <stop offset="0" stop-color="#221a3c"/>
      <stop offset="1" stop-color="#120e22"/>
    </linearGradient>
    <radialGradient id="vig" cx="0.5" cy="0.45" r="0.75">
      <stop offset="0.6" stop-color="#000" stop-opacity="0"/>
      <stop offset="1" stop-color="#000" stop-opacity="0.55"/>
    </radialGradient>
    <filter id="glowF" x="-80%" y="-80%" width="260%" height="260%">
      <feGaussianBlur stdDeviation="6" result="b"/>
      <feMerge><feMergeNode in="b"/><feMergeNode in="SourceGraphic"/></feMerge>
    </filter>
    <filter id="glowS" x="-40%" y="-40%" width="180%" height="180%">
      <feGaussianBlur stdDeviation="3" result="b"/>
      <feMerge><feMergeNode in="b"/><feMergeNode in="SourceGraphic"/></feMerge>
    </filter>
    <filter id="soft" x="-30%" y="-30%" width="160%" height="160%">
      <feGaussianBlur stdDeviation="10"/>
    </filter>
  </defs>

  <rect width="640" height="880" fill="url(#bg)"/>
  <path d="M0 610 L150 470 L300 600 L450 480 L640 615 Z" fill="#000" opacity="0.28"/>
  <ellipse cx="320" cy="400" rx="250" ry="270" fill="url(#halo)"/>

  <!-- 地面霧光 -->
  <ellipse cx="320" cy="712" rx="300" ry="58" fill="#ff9a66" opacity="0.1" filter="url(#soft)"/>

  <!-- 人物剪影 -->
  <g>
    <path d="M320 268 C246 284 210 356 200 470 C190 588 206 648 228 672 L412 672 C434 648 450 588 440 470 C430 356 394 284 320 268 Z"
          fill="url(#cloak)"/>
    <path d="M376 262 C416 310 442 386 440 470 C438 520 432 560 424 592"
          stroke="#ff9a66" stroke-width="7" fill="none" opacity="0.5" filter="url(#glowS)" stroke-linecap="round"/>
    
    <path d="M228 500 L412 476" stroke="#ff9a66" stroke-width="9" opacity="0.4" stroke-linecap="round"/>
    <circle cx="320" cy="298" r="60" fill="url(#cloak)"/>
    <ellipse cx="320" cy="312" rx="42" ry="47" fill="#0c0918"/>
    <circle cx="301" cy="314" r="8" fill="#ff9a66" filter="url(#glowF)"/>
    <circle cx="339" cy="314" r="8" fill="#ff9a66" filter="url(#glowF)"/>
    
      <path d="M276 250 C240 232 218 200 214 160 C246 186 272 214 292 240 Z" fill="#241b3d"/>
      <path d="M364 250 C400 232 422 200 426 160 C394 186 368 214 348 240 Z" fill="#241b3d"/>
      <path d="M276 250 C240 232 218 200 214 160" stroke="#ff9a66" stroke-width="3" fill="none" opacity="0.55"/>
      <path d="M364 250 C400 232 422 200 426 160" stroke="#ff9a66" stroke-width="3" fill="none" opacity="0.55"/>
  </g>
  
  <g transform="rotate(-24 440 470)">
    <rect x="432" y="200" width="17" height="250" rx="8" fill="url(#blade)" filter="url(#glowS)"/>
    <path d="M432 200 L440 172 L449 200 Z" fill="url(#blade)"/>
    <rect x="405" y="448" width="70" height="15" rx="7" fill="#ffd2b0"/>
    <rect x="433" y="462" width="15" height="52" rx="7" fill="#241b3d"/>
    <circle cx="440" cy="522" r="10" fill="#ff9a66"/>
  </g>
  <circle cx="348" cy="270" r="2.9" fill="#ffd2b0" opacity="0.61"/><circle cx="586" cy="115" r="3.5" fill="#ffd2b0" opacity="0.25"/><circle cx="114" cy="266" r="1.9" fill="#ffd2b0" opacity="0.38"/><circle cx="318" cy="351" r="1.8" fill="#ffd2b0" opacity="0.24"/><circle cx="264" cy="363" r="4.9" fill="#ffd2b0" opacity="0.50"/><circle cx="592" cy="501" r="2.0" fill="#ffd2b0" opacity="0.46"/><circle cx="587" cy="459" r="2.1" fill="#ffd2b0" opacity="0.22"/><circle cx="123" cy="312" r="3.4" fill="#ffd2b0" opacity="0.45"/><circle cx="399" cy="485" r="4.8" fill="#ffd2b0" opacity="0.39"/><circle cx="327" cy="258" r="3.1" fill="#ffd2b0" opacity="0.66"/><circle cx="134" cy="408" r="3.3" fill="#ffd2b0" opacity="0.49"/><circle cx="347" cy="127" r="4.7" fill="#ffd2b0" opacity="0.41"/><circle cx="172" cy="114" r="3.3" fill="#ffd2b0" opacity="0.24"/><circle cx="518" cy="499" r="4.6" fill="#ffd2b0" opacity="0.50"/>
  <rect width="640" height="880" fill="url(#vig)"/>
</svg>
