<svg xmlns="http://www.w3.org/2000/svg" width="640" height="880" viewBox="0 0 640 880">
  <defs>
    <linearGradient id="bg" x1="0" y1="0" x2="0" y2="1">
      <stop offset="0" stop-color="#241436"/>
      <stop offset="0.55" stop-color="#4a2b6e"/>
      <stop offset="1" stop-color="#241436"/>
    </linearGradient>
    <radialGradient id="halo" cx="0.5" cy="0.42" r="0.55">
      <stop offset="0" stop-color="#c99aff" stop-opacity="0.55"/>
      <stop offset="0.55" stop-color="#c99aff" stop-opacity="0.18"/>
      <stop offset="1" stop-color="#c99aff" stop-opacity="0"/>
    </radialGradient>
    <linearGradient id="blade" x1="0" y1="0" x2="1" y2="0">
      <stop offset="0" stop-color="#ffffff"/>
      <stop offset="0.5" stop-color="#c99aff"/>
      <stop offset="1" stop-color="#4a2b6e"/>
    </linearGradient>
    <linearGradient id="cloak" x1="0" y1="0" x2="0" y2="1">
      <stop offset="0" stop-color="#221a3c"/>
      <stop offset="1" stop-color="#120e22"/>
    </linearGradient>
    <radialGradient id="vig" cx="0.5" cy="0.45" r="0.75">
      <stop offset="0.6" stop-color="#000" stop-opacity="0"/>
      <stop offset="1" stop-color="#000" stop-opacity="0.55"/>
    </radialGradient>
    <filter id="glowF" x="-80%" y="-80%" width="260%" height="260%">
      <feGaussianBlur stdDeviation="6" result="b"/>
      <feMerge><feMergeNode in="b"/><feMergeNode in="SourceGraphic"/></feMerge>
    </filter>
    <filter id="glowS" x="-40%" y="-40%" width="180%" height="180%">
      <feGaussianBlur stdDeviation="3" result="b"/>
      <feMerge><feMergeNode in="b"/><feMergeNode in="SourceGraphic"/></feMerge>
    </filter>
    <filter id="soft" x="-30%" y="-30%" width="160%" height="160%">
      <feGaussianBlur stdDeviation="10"/>
    </filter>
  </defs>

  <rect width="640" height="880" fill="url(#bg)"/>
  <path d="M0 610 L150 470 L300 600 L450 480 L640 615 Z" fill="#000" opacity="0.28"/>
  <ellipse cx="320" cy="400" rx="250" ry="270" fill="url(#halo)"/>

  <!-- 地面霧光 -->
  <ellipse cx="320" cy="712" rx="300" ry="58" fill="#c99aff" opacity="0.1" filter="url(#soft)"/>

  <!-- 人物剪影 -->
  <g>
    <path d="M320 268 C246 284 210 356 200 470 C190 588 206 648 228 672 L412 672 C434 648 450 588 440 470 C430 356 394 284 320 268 Z"
          fill="url(#cloak)"/>
    <path d="M376 262 C416 310 442 386 440 470 C438 520 432 560 424 592"
          stroke="#c99aff" stroke-width="7" fill="none" opacity="0.5" filter="url(#glowS)" stroke-linecap="round"/>
    
    <path d="M228 500 L412 476" stroke="#c99aff" stroke-width="9" opacity="0.4" stroke-linecap="round"/>
    <circle cx="320" cy="298" r="60" fill="url(#cloak)"/>
    <ellipse cx="320" cy="312" rx="42" ry="47" fill="#0c0918"/>
    <circle cx="301" cy="314" r="8" fill="#c99aff" filter="url(#glowF)"/>
    <circle cx="339" cy="314" r="8" fill="#c99aff" filter="url(#glowF)"/>
    
      <path d="M270 260 L246 178 L302 234 Z" fill="#241b3d"/>
      <path d="M370 260 L394 178 L338 234 Z" fill="#241b3d"/>
      <path d="M272 250 L256 196 L294 234 Z" fill="#c99aff" opacity="0.35"/>
      <path d="M368 250 L384 196 L346 234 Z" fill="#c99aff" opacity="0.35"/>
  </g>
  
  <g transform="rotate(-20 440 470)">
    <rect x="432" y="200" width="17" height="250" rx="8" fill="url(#blade)" filter="url(#glowS)"/>
    <path d="M432 200 L440 172 L449 200 Z" fill="url(#blade)"/>
    <rect x="405" y="448" width="70" height="15" rx="7" fill="#e6ccff"/>
    <rect x="433" y="462" width="15" height="52" rx="7" fill="#241b3d"/>
    <circle cx="440" cy="522" r="10" fill="#c99aff"/>
  </g>
  <circle cx="337" cy="433" r="2.1" fill="#e6ccff" opacity="0.28"/><circle cx="278" cy="143" r="1.7" fill="#e6ccff" opacity="0.52"/><circle cx="40" cy="346" r="4.0" fill="#e6ccff" opacity="0.33"/><circle cx="93" cy="396" r="2.1" fill="#e6ccff" opacity="0.29"/><circle cx="140" cy="491" r="3.0" fill="#e6ccff" opacity="0.30"/><circle cx="485" cy="115" r="2.8" fill="#e6ccff" opacity="0.54"/><circle cx="342" cy="276" r="3.8" fill="#e6ccff" opacity="0.63"/><circle cx="500" cy="201" r="3.9" fill="#e6ccff" opacity="0.50"/><circle cx="556" cy="322" r="3.4" fill="#e6ccff" opacity="0.25"/><circle cx="122" cy="111" r="4.6" fill="#e6ccff" opacity="0.53"/><circle cx="61" cy="501" r="3.1" fill="#e6ccff" opacity="0.20"/><circle cx="580" cy="345" r="2.5" fill="#e6ccff" opacity="0.48"/><circle cx="353" cy="560" r="3.4" fill="#e6ccff" opacity="0.53"/><circle cx="490" cy="307" r="3.2" fill="#e6ccff" opacity="0.51"/>
  <rect width="640" height="880" fill="url(#vig)"/>
</svg>
