<svg xmlns="http://www.w3.org/2000/svg" width="420" height="566" viewBox="110 110 420 566">
  <defs>
    <linearGradient id="bg" x1="0" y1="0" x2="0" y2="1">
      <stop offset="0" stop-color="#14322a"/>
      <stop offset="0.55" stop-color="#2e6b4f"/>
      <stop offset="1" stop-color="#14322a"/>
    </linearGradient>
    <radialGradient id="halo" cx="0.5" cy="0.42" r="0.55">
      <stop offset="0" stop-color="#8ef2ae" stop-opacity="0.55"/>
      <stop offset="0.55" stop-color="#8ef2ae" stop-opacity="0.18"/>
      <stop offset="1" stop-color="#8ef2ae" stop-opacity="0"/>
    </radialGradient>
    <linearGradient id="blade" x1="0" y1="0" x2="1" y2="0">
      <stop offset="0" stop-color="#ffffff"/>
      <stop offset="0.5" stop-color="#8ef2ae"/>
      <stop offset="1" stop-color="#2e6b4f"/>
    </linearGradient>
    <linearGradient id="cloak" x1="0" y1="0" x2="0" y2="1">
      <stop offset="0" stop-color="#221a3c"/>
      <stop offset="1" stop-color="#120e22"/>
    </linearGradient>
    <radialGradient id="vig" cx="0.5" cy="0.45" r="0.75">
      <stop offset="0.6" stop-color="#000" stop-opacity="0"/>
      <stop offset="1" stop-color="#000" stop-opacity="0.55"/>
    </radialGradient>
    <filter id="glowF" x="-80%" y="-80%" width="260%" height="260%">
      <feGaussianBlur stdDeviation="6" result="b"/>
      <feMerge><feMergeNode in="b"/><feMergeNode in="SourceGraphic"/></feMerge>
    </filter>
    <filter id="glowS" x="-40%" y="-40%" width="180%" height="180%">
      <feGaussianBlur stdDeviation="3" result="b"/>
      <feMerge><feMergeNode in="b"/><feMergeNode in="SourceGraphic"/></feMerge>
    </filter>
    <filter id="soft" x="-30%" y="-30%" width="160%" height="160%">
      <feGaussianBlur stdDeviation="10"/>
    </filter>
  </defs>
  <g>
    <path d="M320 268 C246 284 210 356 200 470 C190 588 206 648 228 672 L412 672 C434 648 450 588 440 470 C430 356 394 284 320 268 Z"
          fill="url(#cloak)"/>
    <path d="M376 262 C416 310 442 386 440 470 C438 520 432 560 424 592"
          stroke="#8ef2ae" stroke-width="7" fill="none" opacity="0.5" filter="url(#glowS)" stroke-linecap="round"/>
    
    <path d="M228 500 L412 476" stroke="#8ef2ae" stroke-width="9" opacity="0.4" stroke-linecap="round"/>
    <circle cx="320" cy="298" r="60" fill="url(#cloak)"/>
    <ellipse cx="320" cy="312" rx="42" ry="47" fill="#0c0918"/>
    <circle cx="301" cy="314" r="8" fill="#8ef2ae" filter="url(#glowF)"/>
    <circle cx="339" cy="314" r="8" fill="#8ef2ae" filter="url(#glowF)"/>
    
  </g>
  <g transform="rotate(-25 440 470)">
    <rect x="432" y="200" width="17" height="250" rx="8" fill="url(#blade)" filter="url(#glowS)"/>
    <path d="M432 200 L440 172 L449 200 Z" fill="url(#blade)"/>
    <rect x="405" y="448" width="70" height="15" rx="7" fill="#d8ffb0"/>
    <rect x="433" y="462" width="15" height="52" rx="7" fill="#241b3d"/>
    <circle cx="440" cy="522" r="10" fill="#8ef2ae"/>
  </g>
</svg>