<svg xmlns="http://www.w3.org/2000/svg" width="640" height="880" viewBox="0 0 640 880">
  <defs>
    <linearGradient id="bg" x1="0" y1="0" x2="0" y2="1">
      <stop offset="0" stop-color="#3a1424"/>
      <stop offset="0.55" stop-color="#87343c"/>
      <stop offset="1" stop-color="#3a1424"/>
    </linearGradient>
    <radialGradient id="halo" cx="0.5" cy="0.42" r="0.55">
      <stop offset="0" stop-color="#ff9a66" stop-opacity="0.55"/>
      <stop offset="0.55" stop-color="#ff9a66" stop-opacity="0.18"/>
      <stop offset="1" stop-color="#ff9a66" stop-opacity="0"/>
    </radialGradient>
    <linearGradient id="blade" x1="0" y1="0" x2="1" y2="0">
      <stop offset="0" stop-color="#ffffff"/>
      <stop offset="0.5" stop-color="#ff9a66"/>
      <stop offset="1" stop-color="#87343c"/>
    </linearGradient>
    <linearGradient id="cloak" x1="0" y1="0" x2="0" y2="1">
      <stop offset="0" stop-color="#221a3c"/>
      <stop offset="1" stop-color="#120e22"/>
    </linearGradient>
    <radialGradient id="vig" cx="0.5" cy="0.45" r="0.75">
      <stop offset="0.6" stop-color="#000" stop-opacity="0"/>
      <stop offset="1" stop-color="#000" stop-opacity="0.55"/>
    </radialGradient>
    <filter id="glowF" x="-80%" y="-80%" width="260%" height="260%">
      <feGaussianBlur stdDeviation="6" result="b"/>
      <feMerge><feMergeNode in="b"/><feMergeNode in="SourceGraphic"/></feMerge>
    </filter>
    <filter id="glowS" x="-40%" y="-40%" width="180%" height="180%">
      <feGaussianBlur stdDeviation="3" result="b"/>
      <feMerge><feMergeNode in="b"/><feMergeNode in="SourceGraphic"/></feMerge>
    </filter>
    <filter id="soft" x="-30%" y="-30%" width="160%" height="160%">
      <feGaussianBlur stdDeviation="10"/>
    </filter>
  </defs>

  <rect width="640" height="880" fill="url(#bg)"/>
  
      <path d="M0 600 L70 480 L140 585 L215 440 L290 585 L360 500 L430 590 L520 455 L640 600 Z" fill="#000" opacity="0.32"/>
      <path d="M0 655 L110 555 L230 645 L340 565 L470 650 L580 585 L640 640 Z" fill="#000" opacity="0.45"/>
  <ellipse cx="320" cy="400" rx="250" ry="270" fill="url(#halo)"/>

  <!-- 地面霧光 -->
  <ellipse cx="320" cy="712" rx="300" ry="58" fill="#ff9a66" opacity="0.1" filter="url(#soft)"/>

  <!-- 人物剪影 -->
  <g>
    <path d="M320 268 C246 284 210 356 200 470 C190 588 206 648 228 672 L412 672 C434 648 450 588 440 470 C430 356 394 284 320 268 Z"
          fill="url(#cloak)"/>
    <path d="M376 262 C416 310 442 386 440 470 C438 520 432 560 424 592"
          stroke="#ff9a66" stroke-width="7" fill="none" opacity="0.5" filter="url(#glowS)" stroke-linecap="round"/>
    <circle cx="320" cy="298" r="60" fill="url(#cloak)"/>
    <ellipse cx="320" cy="312" rx="42" ry="47" fill="#0c0918"/>
    <circle cx="301" cy="314" r="8" fill="#ff9a66" filter="url(#glowF)"/>
    <circle cx="339" cy="314" r="8" fill="#ff9a66" filter="url(#glowF)"/>
    
      <path d="M282 252 C268 214 274 186 294 168 C286 202 290 232 300 254 Z" fill="#241b3d"/>
      <path d="M358 252 C372 214 366 186 346 168 C354 202 350 232 340 254 Z" fill="#241b3d"/>
      <path d="M282 252 C268 214 274 186 294 168" stroke="#ff9a66" stroke-width="3" fill="none" opacity="0.6"/>
      <path d="M358 252 C372 214 366 186 346 168" stroke="#ff9a66" stroke-width="3" fill="none" opacity="0.6"/>
  </g>
  
  <g transform="rotate(-24 440 470)">
    <rect x="432" y="200" width="17" height="250" rx="8" fill="url(#blade)" filter="url(#glowS)"/>
    <path d="M432 200 L440 172 L449 200 Z" fill="url(#blade)"/>
    <rect x="405" y="448" width="70" height="15" rx="7" fill="#ffd27a"/>
    <rect x="433" y="462" width="15" height="52" rx="7" fill="#241b3d"/>
    <circle cx="440" cy="522" r="10" fill="#ff9a66"/>
  </g>
  <circle cx="452" cy="403" r="2.3" fill="#ffd27a" opacity="0.20"/><circle cx="526" cy="328" r="3.8" fill="#ffd27a" opacity="0.56"/><circle cx="86" cy="666" r="2.4" fill="#ffd27a" opacity="0.67"/><circle cx="268" cy="196" r="4.0" fill="#ffd27a" opacity="0.29"/><circle cx="358" cy="181" r="4.0" fill="#ffd27a" opacity="0.46"/><circle cx="110" cy="325" r="5.0" fill="#ffd27a" opacity="0.46"/><circle cx="68" cy="559" r="3.9" fill="#ffd27a" opacity="0.56"/><circle cx="474" cy="692" r="3.7" fill="#ffd27a" opacity="0.54"/><circle cx="328" cy="201" r="5.0" fill="#ffd27a" opacity="0.49"/><circle cx="438" cy="550" r="2.6" fill="#ffd27a" opacity="0.67"/><circle cx="70" cy="304" r="2.9" fill="#ffd27a" opacity="0.41"/><circle cx="434" cy="608" r="2.9" fill="#ffd27a" opacity="0.57"/><circle cx="65" cy="226" r="3.5" fill="#ffd27a" opacity="0.46"/><circle cx="93" cy="168" r="1.5" fill="#ffd27a" opacity="0.60"/>
  <rect width="640" height="880" fill="url(#vig)"/>
</svg>
