<svg xmlns="http://www.w3.org/2000/svg" width="640" height="880" viewBox="0 0 640 880">
  <defs>
    <linearGradient id="bg" x1="0" y1="0" x2="0" y2="1">
      <stop offset="0" stop-color="#4a3a14"/>
      <stop offset="0.55" stop-color="#8f742b"/>
      <stop offset="1" stop-color="#4a3a14"/>
    </linearGradient>
    <radialGradient id="halo" cx="0.5" cy="0.42" r="0.55">
      <stop offset="0" stop-color="#ffe789" stop-opacity="0.55"/>
      <stop offset="0.55" stop-color="#ffe789" stop-opacity="0.18"/>
      <stop offset="1" stop-color="#ffe789" stop-opacity="0"/>
    </radialGradient>
    <linearGradient id="blade" x1="0" y1="0" x2="1" y2="0">
      <stop offset="0" stop-color="#ffffff"/>
      <stop offset="0.5" stop-color="#ffe789"/>
      <stop offset="1" stop-color="#8f742b"/>
    </linearGradient>
    <linearGradient id="cloak" x1="0" y1="0" x2="0" y2="1">
      <stop offset="0" stop-color="#221a3c"/>
      <stop offset="1" stop-color="#120e22"/>
    </linearGradient>
    <radialGradient id="vig" cx="0.5" cy="0.45" r="0.75">
      <stop offset="0.6" stop-color="#000" stop-opacity="0"/>
      <stop offset="1" stop-color="#000" stop-opacity="0.55"/>
    </radialGradient>
    <filter id="glowF" x="-80%" y="-80%" width="260%" height="260%">
      <feGaussianBlur stdDeviation="6" result="b"/>
      <feMerge><feMergeNode in="b"/><feMergeNode in="SourceGraphic"/></feMerge>
    </filter>
    <filter id="glowS" x="-40%" y="-40%" width="180%" height="180%">
      <feGaussianBlur stdDeviation="3" result="b"/>
      <feMerge><feMergeNode in="b"/><feMergeNode in="SourceGraphic"/></feMerge>
    </filter>
    <filter id="soft" x="-30%" y="-30%" width="160%" height="160%">
      <feGaussianBlur stdDeviation="10"/>
    </filter>
  </defs>

  <rect width="640" height="880" fill="url(#bg)"/>
  <path d="M0 610 L150 470 L300 600 L450 480 L640 615 Z" fill="#000" opacity="0.28"/>
  <ellipse cx="320" cy="400" rx="250" ry="270" fill="url(#halo)"/>

  <!-- 地面霧光 -->
  <ellipse cx="320" cy="712" rx="300" ry="58" fill="#ffe789" opacity="0.1" filter="url(#soft)"/>

  <!-- 人物剪影 -->
  <g>
    <path d="M320 268 C246 284 210 356 200 470 C190 588 206 648 228 672 L412 672 C434 648 450 588 440 470 C430 356 394 284 320 268 Z"
          fill="url(#cloak)"/>
    <path d="M376 262 C416 310 442 386 440 470 C438 520 432 560 424 592"
          stroke="#ffe789" stroke-width="7" fill="none" opacity="0.5" filter="url(#glowS)" stroke-linecap="round"/>
    
    <circle cx="320" cy="298" r="60" fill="url(#cloak)"/>
    <ellipse cx="320" cy="312" rx="42" ry="47" fill="#0c0918"/>
    <circle cx="301" cy="314" r="8" fill="#ffe789" filter="url(#glowF)"/>
    <circle cx="339" cy="314" r="8" fill="#ffe789" filter="url(#glowF)"/>
    
      <path d="M270 260 L246 178 L302 234 Z" fill="#241b3d"/>
      <path d="M370 260 L394 178 L338 234 Z" fill="#241b3d"/>
      <path d="M272 250 L256 196 L294 234 Z" fill="#ffe789" opacity="0.35"/>
      <path d="M368 250 L384 196 L346 234 Z" fill="#ffe789" opacity="0.35"/>
  </g>
  
    <g>
      <rect x="432" y="330" width="13" height="330" rx="6" fill="#241b3d"/>
      <rect x="432" y="330" width="13" height="330" rx="6" fill="none" stroke="#ffe789" stroke-width="2" opacity="0.35"/>
      <circle cx="438" cy="308" r="30" fill="#ffe789" opacity="0.95" filter="url(#glowF)"/>
      <circle cx="438" cy="308" r="14" fill="#fff" opacity="0.9"/>
      <circle cx="438" cy="308" r="44" fill="none" stroke="#ffe789" stroke-width="3" opacity="0.4"/>
    </g>
  <circle cx="477" cy="318" r="4.5" fill="#fff4c2" opacity="0.45"/><circle cx="533" cy="353" r="4.9" fill="#fff4c2" opacity="0.61"/><circle cx="409" cy="368" r="2.9" fill="#fff4c2" opacity="0.29"/><circle cx="490" cy="649" r="2.4" fill="#fff4c2" opacity="0.62"/><circle cx="559" cy="278" r="3.4" fill="#fff4c2" opacity="0.25"/><circle cx="490" cy="208" r="1.8" fill="#fff4c2" opacity="0.60"/><circle cx="85" cy="165" r="2.1" fill="#fff4c2" opacity="0.37"/><circle cx="591" cy="599" r="4.8" fill="#fff4c2" opacity="0.38"/><circle cx="475" cy="650" r="2.0" fill="#fff4c2" opacity="0.60"/><circle cx="40" cy="656" r="3.3" fill="#fff4c2" opacity="0.66"/><circle cx="459" cy="471" r="2.7" fill="#fff4c2" opacity="0.63"/><circle cx="322" cy="621" r="3.2" fill="#fff4c2" opacity="0.37"/><circle cx="203" cy="267" r="5.0" fill="#fff4c2" opacity="0.62"/><circle cx="133" cy="486" r="3.3" fill="#fff4c2" opacity="0.47"/>
  <rect width="640" height="880" fill="url(#vig)"/>
</svg>
