<svg xmlns="http://www.w3.org/2000/svg" width="640" height="880" viewBox="0 0 640 880">
  <defs>
    <linearGradient id="bg" x1="0" y1="0" x2="0" y2="1">
      <stop offset="0" stop-color="#241436"/>
      <stop offset="0.55" stop-color="#4a2b6e"/>
      <stop offset="1" stop-color="#241436"/>
    </linearGradient>
    <radialGradient id="halo" cx="0.5" cy="0.42" r="0.55">
      <stop offset="0" stop-color="#c99aff" stop-opacity="0.55"/>
      <stop offset="0.55" stop-color="#c99aff" stop-opacity="0.18"/>
      <stop offset="1" stop-color="#c99aff" stop-opacity="0"/>
    </radialGradient>
    <linearGradient id="blade" x1="0" y1="0" x2="1" y2="0">
      <stop offset="0" stop-color="#ffffff"/>
      <stop offset="0.5" stop-color="#c99aff"/>
      <stop offset="1" stop-color="#4a2b6e"/>
    </linearGradient>
    <linearGradient id="cloak" x1="0" y1="0" x2="0" y2="1">
      <stop offset="0" stop-color="#221a3c"/>
      <stop offset="1" stop-color="#120e22"/>
    </linearGradient>
    <radialGradient id="vig" cx="0.5" cy="0.45" r="0.75">
      <stop offset="0.6" stop-color="#000" stop-opacity="0"/>
      <stop offset="1" stop-color="#000" stop-opacity="0.55"/>
    </radialGradient>
    <filter id="glowF" x="-80%" y="-80%" width="260%" height="260%">
      <feGaussianBlur stdDeviation="6" result="b"/>
      <feMerge><feMergeNode in="b"/><feMergeNode in="SourceGraphic"/></feMerge>
    </filter>
    <filter id="glowS" x="-40%" y="-40%" width="180%" height="180%">
      <feGaussianBlur stdDeviation="3" result="b"/>
      <feMerge><feMergeNode in="b"/><feMergeNode in="SourceGraphic"/></feMerge>
    </filter>
    <filter id="soft" x="-30%" y="-30%" width="160%" height="160%">
      <feGaussianBlur stdDeviation="10"/>
    </filter>
  </defs>

  <rect width="640" height="880" fill="url(#bg)"/>
  
      <path d="M0 620 L60 560 L80 620 L130 480 L150 615 L230 585 L260 620 L640 620 L610 560 L560 615 L520 470 L480 610 L420 580 Z" fill="#000" opacity="0.38"/>
      <path d="M90 560 L96 470 M520 545 L512 455" stroke="#000" stroke-width="10" opacity="0.35" stroke-linecap="round"/>
  <ellipse cx="320" cy="400" rx="250" ry="270" fill="url(#halo)"/>

  <!-- 地面霧光 -->
  <ellipse cx="320" cy="712" rx="300" ry="58" fill="#c99aff" opacity="0.1" filter="url(#soft)"/>

  <!-- 人物剪影 -->
  <g>
    <path d="M320 268 C246 284 210 356 200 470 C190 588 206 648 228 672 L412 672 C434 648 450 588 440 470 C430 356 394 284 320 268 Z"
          fill="url(#cloak)"/>
    <path d="M376 262 C416 310 442 386 440 470 C438 520 432 560 424 592"
          stroke="#c99aff" stroke-width="7" fill="none" opacity="0.5" filter="url(#glowS)" stroke-linecap="round"/>
    <circle cx="320" cy="298" r="60" fill="url(#cloak)"/>
    <ellipse cx="320" cy="312" rx="42" ry="47" fill="#0c0918"/>
    <circle cx="301" cy="314" r="8" fill="#c99aff" filter="url(#glowF)"/>
    <circle cx="339" cy="314" r="8" fill="#c99aff" filter="url(#glowF)"/>
    
      <circle cx="252" cy="420" r="6" fill="#c99aff" opacity="0.8" filter="url(#glowF)"/>
      <circle cx="398" cy="392" r="5" fill="#c99aff" opacity="0.7" filter="url(#glowF)"/>
      <circle cx="272" cy="360" r="4" fill="#c99aff" opacity="0.6" filter="url(#glowF)"/>
  </g>
  
    <g>
      <rect x="424" y="256" width="12" height="420" rx="6" fill="#241b3d" transform="rotate(14 430 470)"/>
      <path d="M470 250 C560 268 610 330 616 402 C560 352 500 330 448 330 C462 300 468 274 470 250 Z"
            fill="#4a2b6e" stroke="#c99aff" stroke-width="5" transform="rotate(14 470 300)" filter="url(#glowS)"/>
    </g>
  <circle cx="78" cy="559" r="2.2" fill="#ff9ad2" opacity="0.39"/><circle cx="508" cy="448" r="3.5" fill="#ff9ad2" opacity="0.60"/><circle cx="544" cy="517" r="1.5" fill="#ff9ad2" opacity="0.53"/><circle cx="513" cy="173" r="4.6" fill="#ff9ad2" opacity="0.52"/><circle cx="314" cy="468" r="3.2" fill="#ff9ad2" opacity="0.63"/><circle cx="129" cy="524" r="4.8" fill="#ff9ad2" opacity="0.43"/><circle cx="272" cy="471" r="3.8" fill="#ff9ad2" opacity="0.35"/><circle cx="598" cy="452" r="2.6" fill="#ff9ad2" opacity="0.66"/><circle cx="502" cy="294" r="4.6" fill="#ff9ad2" opacity="0.18"/><circle cx="329" cy="222" r="2.2" fill="#ff9ad2" opacity="0.67"/><circle cx="580" cy="630" r="3.3" fill="#ff9ad2" opacity="0.27"/><circle cx="508" cy="629" r="4.2" fill="#ff9ad2" opacity="0.36"/><circle cx="283" cy="218" r="2.6" fill="#ff9ad2" opacity="0.38"/><circle cx="568" cy="316" r="3.8" fill="#ff9ad2" opacity="0.47"/>
  <rect width="640" height="880" fill="url(#vig)"/>
</svg>
