<svg xmlns="http://www.w3.org/2000/svg" width="640" height="880" viewBox="0 0 640 880">
  <defs>
    <linearGradient id="bg" x1="0" y1="0" x2="0" y2="1">
      <stop offset="0" stop-color="#4a3a14"/>
      <stop offset="0.55" stop-color="#8f742b"/>
      <stop offset="1" stop-color="#4a3a14"/>
    </linearGradient>
    <radialGradient id="halo" cx="0.5" cy="0.42" r="0.55">
      <stop offset="0" stop-color="#ffe789" stop-opacity="0.55"/>
      <stop offset="0.55" stop-color="#ffe789" stop-opacity="0.18"/>
      <stop offset="1" stop-color="#ffe789" stop-opacity="0"/>
    </radialGradient>
    <linearGradient id="blade" x1="0" y1="0" x2="1" y2="0">
      <stop offset="0" stop-color="#ffffff"/>
      <stop offset="0.5" stop-color="#ffe789"/>
      <stop offset="1" stop-color="#8f742b"/>
    </linearGradient>
    <linearGradient id="cloak" x1="0" y1="0" x2="0" y2="1">
      <stop offset="0" stop-color="#221a3c"/>
      <stop offset="1" stop-color="#120e22"/>
    </linearGradient>
    <radialGradient id="vig" cx="0.5" cy="0.45" r="0.75">
      <stop offset="0.6" stop-color="#000" stop-opacity="0"/>
      <stop offset="1" stop-color="#000" stop-opacity="0.55"/>
    </radialGradient>
    <filter id="glowF" x="-80%" y="-80%" width="260%" height="260%">
      <feGaussianBlur stdDeviation="6" result="b"/>
      <feMerge><feMergeNode in="b"/><feMergeNode in="SourceGraphic"/></feMerge>
    </filter>
    <filter id="glowS" x="-40%" y="-40%" width="180%" height="180%">
      <feGaussianBlur stdDeviation="3" result="b"/>
      <feMerge><feMergeNode in="b"/><feMergeNode in="SourceGraphic"/></feMerge>
    </filter>
    <filter id="soft" x="-30%" y="-30%" width="160%" height="160%">
      <feGaussianBlur stdDeviation="10"/>
    </filter>
  </defs>

  <rect width="640" height="880" fill="url(#bg)"/>
  <path d="M0 610 L150 470 L300 600 L450 480 L640 615 Z" fill="#000" opacity="0.28"/>
  <ellipse cx="320" cy="400" rx="250" ry="270" fill="url(#halo)"/>

  <!-- 地面霧光 -->
  <ellipse cx="320" cy="712" rx="300" ry="58" fill="#ffe789" opacity="0.1" filter="url(#soft)"/>

  <!-- 人物剪影 -->
  <g>
    <path d="M320 268 C246 284 210 356 200 470 C190 588 206 648 228 672 L412 672 C434 648 450 588 440 470 C430 356 394 284 320 268 Z"
          fill="url(#cloak)"/>
    <path d="M376 262 C416 310 442 386 440 470 C438 520 432 560 424 592"
          stroke="#ffe789" stroke-width="7" fill="none" opacity="0.5" filter="url(#glowS)" stroke-linecap="round"/>
    
    <ellipse cx="232" cy="352" rx="42" ry="30" fill="#241b3d"/>
    <ellipse cx="408" cy="352" rx="42" ry="30" fill="#241b3d"/>
    <ellipse cx="232" cy="352" rx="42" ry="30" fill="none" stroke="#ffe789" stroke-width="3" opacity="0.4"/>
    <ellipse cx="408" cy="352" rx="42" ry="30" fill="none" stroke="#ffe789" stroke-width="3" opacity="0.4"/>
    <circle cx="320" cy="298" r="60" fill="url(#cloak)"/>
    <ellipse cx="320" cy="312" rx="42" ry="47" fill="#0c0918"/>
    <rect x="288" y="306" width="64" height="12" rx="6" fill="#ffe789" filter="url(#glowF)"/>
    
      <rect x="316" y="200" width="8" height="44" rx="4" fill="#241b3d"/>
      <circle cx="320" cy="196" r="9" fill="#ffe789" filter="url(#glowF)"/>
      <rect x="286" y="336" width="68" height="5" rx="2.5" fill="#ffe789" opacity="0.45"/>
  </g>
  
    <g>
      <path d="M320 470 L408 505 L408 600 C408 665 370 706 320 726 C270 706 232 665 232 600 L232 505 Z"
            fill="#8f742b" stroke="#fff4c2" stroke-width="8"/>
      <path d="M320 492 L390 520 L390 598 C390 650 360 684 320 700 C280 684 250 650 250 598 L250 520 Z"
            fill="#141024" opacity="0.55"/>
      <circle cx="320" cy="588" r="30" fill="#ffe789" opacity="0.9" filter="url(#glowF)"/>
      <circle cx="320" cy="588" r="14" fill="#fff4c2"/>
    </g>
  <circle cx="86" cy="591" r="1.8" fill="#fff4c2" opacity="0.61"/><circle cx="590" cy="301" r="3.7" fill="#fff4c2" opacity="0.44"/><circle cx="335" cy="651" r="4.9" fill="#fff4c2" opacity="0.24"/><circle cx="523" cy="152" r="4.0" fill="#fff4c2" opacity="0.61"/><circle cx="89" cy="413" r="2.4" fill="#fff4c2" opacity="0.32"/><circle cx="556" cy="684" r="2.5" fill="#fff4c2" opacity="0.33"/><circle cx="431" cy="694" r="3.1" fill="#fff4c2" opacity="0.41"/><circle cx="271" cy="470" r="3.6" fill="#fff4c2" opacity="0.59"/><circle cx="452" cy="371" r="3.3" fill="#fff4c2" opacity="0.67"/><circle cx="178" cy="525" r="4.6" fill="#fff4c2" opacity="0.27"/><circle cx="198" cy="200" r="4.3" fill="#fff4c2" opacity="0.19"/><circle cx="132" cy="197" r="3.0" fill="#fff4c2" opacity="0.56"/><circle cx="432" cy="689" r="4.1" fill="#fff4c2" opacity="0.65"/><circle cx="159" cy="306" r="2.8" fill="#fff4c2" opacity="0.58"/>
  <rect width="640" height="880" fill="url(#vig)"/>
</svg>
