<svg xmlns="http://www.w3.org/2000/svg" width="640" height="880" viewBox="0 0 640 880">
  <defs>
    <linearGradient id="bg" x1="0" y1="0" x2="0" y2="1">
      <stop offset="0" stop-color="#4a3a14"/>
      <stop offset="0.55" stop-color="#8f742b"/>
      <stop offset="1" stop-color="#4a3a14"/>
    </linearGradient>
    <radialGradient id="halo" cx="0.5" cy="0.42" r="0.55">
      <stop offset="0" stop-color="#ffe789" stop-opacity="0.55"/>
      <stop offset="0.55" stop-color="#ffe789" stop-opacity="0.18"/>
      <stop offset="1" stop-color="#ffe789" stop-opacity="0"/>
    </radialGradient>
    <linearGradient id="blade" x1="0" y1="0" x2="1" y2="0">
      <stop offset="0" stop-color="#ffffff"/>
      <stop offset="0.5" stop-color="#ffe789"/>
      <stop offset="1" stop-color="#8f742b"/>
    </linearGradient>
    <linearGradient id="cloak" x1="0" y1="0" x2="0" y2="1">
      <stop offset="0" stop-color="#221a3c"/>
      <stop offset="1" stop-color="#120e22"/>
    </linearGradient>
    <radialGradient id="vig" cx="0.5" cy="0.45" r="0.75">
      <stop offset="0.6" stop-color="#000" stop-opacity="0"/>
      <stop offset="1" stop-color="#000" stop-opacity="0.55"/>
    </radialGradient>
    <filter id="glowF" x="-80%" y="-80%" width="260%" height="260%">
      <feGaussianBlur stdDeviation="6" result="b"/>
      <feMerge><feMergeNode in="b"/><feMergeNode in="SourceGraphic"/></feMerge>
    </filter>
    <filter id="glowS" x="-40%" y="-40%" width="180%" height="180%">
      <feGaussianBlur stdDeviation="3" result="b"/>
      <feMerge><feMergeNode in="b"/><feMergeNode in="SourceGraphic"/></feMerge>
    </filter>
    <filter id="soft" x="-30%" y="-30%" width="160%" height="160%">
      <feGaussianBlur stdDeviation="10"/>
    </filter>
  </defs>

  <rect width="640" height="880" fill="url(#bg)"/>
  
      <path d="M0 610 L150 470 L300 600 L450 480 L640 615 Z" fill="#000" opacity="0.28"/>
      <g opacity="0.16">
        <path d="M320 0 L250 620 L390 620 Z" fill="#fff4c2"/>
        <path d="M120 0 L60 520 L200 560 Z" fill="#fff4c2" opacity="0.7"/>
        <path d="M520 0 L440 560 L580 520 Z" fill="#fff4c2" opacity="0.7"/>
      </g>
  <ellipse cx="320" cy="400" rx="250" ry="270" fill="url(#halo)"/>

  <!-- 地面霧光 -->
  <ellipse cx="320" cy="712" rx="300" ry="58" fill="#ffe789" opacity="0.1" filter="url(#soft)"/>

  <!-- 人物剪影 -->
  <g>
    <path d="M320 268 C246 284 210 356 200 470 C190 588 206 648 228 672 L412 672 C434 648 450 588 440 470 C430 356 394 284 320 268 Z"
          fill="url(#cloak)"/>
    <path d="M376 262 C416 310 442 386 440 470 C438 520 432 560 424 592"
          stroke="#ffe789" stroke-width="7" fill="none" opacity="0.5" filter="url(#glowS)" stroke-linecap="round"/>
    <circle cx="320" cy="298" r="60" fill="url(#cloak)"/>
    <ellipse cx="320" cy="312" rx="42" ry="47" fill="#0c0918"/>
    <circle cx="301" cy="314" r="8" fill="#ffe789" filter="url(#glowF)"/>
    <circle cx="339" cy="314" r="8" fill="#ffe789" filter="url(#glowF)"/>
    <ellipse cx="320" cy="212" rx="60" ry="13" fill="none" stroke="#fff4c2" stroke-width="7" opacity="0.9" filter="url(#glowF)"/>
  </g>
  
    <g>
      <rect x="432" y="330" width="13" height="330" rx="6" fill="#241b3d"/>
      <rect x="432" y="330" width="13" height="330" rx="6" fill="none" stroke="#ffe789" stroke-width="2" opacity="0.35"/>
      <circle cx="438" cy="308" r="30" fill="#ffe789" opacity="0.95" filter="url(#glowF)"/>
      <circle cx="438" cy="308" r="14" fill="#fff" opacity="0.9"/>
      <circle cx="438" cy="308" r="44" fill="none" stroke="#ffe789" stroke-width="3" opacity="0.4"/>
    </g>
  <circle cx="312" cy="520" r="4.1" fill="#fff4c2" opacity="0.36"/><circle cx="343" cy="693" r="1.5" fill="#fff4c2" opacity="0.62"/><circle cx="207" cy="370" r="3.5" fill="#fff4c2" opacity="0.50"/><circle cx="531" cy="172" r="2.4" fill="#fff4c2" opacity="0.58"/><circle cx="497" cy="172" r="3.5" fill="#fff4c2" opacity="0.50"/><circle cx="338" cy="661" r="2.5" fill="#fff4c2" opacity="0.21"/><circle cx="478" cy="356" r="4.2" fill="#fff4c2" opacity="0.56"/><circle cx="492" cy="101" r="1.6" fill="#fff4c2" opacity="0.67"/><circle cx="583" cy="101" r="4.9" fill="#fff4c2" opacity="0.32"/><circle cx="330" cy="640" r="3.5" fill="#fff4c2" opacity="0.27"/><circle cx="211" cy="570" r="2.0" fill="#fff4c2" opacity="0.34"/><circle cx="349" cy="402" r="3.7" fill="#fff4c2" opacity="0.44"/><circle cx="184" cy="274" r="2.1" fill="#fff4c2" opacity="0.63"/><circle cx="594" cy="559" r="1.9" fill="#fff4c2" opacity="0.48"/>
  <rect width="640" height="880" fill="url(#vig)"/>
</svg>
