<svg xmlns="http://www.w3.org/2000/svg" width="640" height="880" viewBox="0 0 640 880">
  <defs>
    <linearGradient id="bg" x1="0" y1="0" x2="0" y2="1">
      <stop offset="0" stop-color="#14322a"/>
      <stop offset="0.55" stop-color="#2e6b4f"/>
      <stop offset="1" stop-color="#14322a"/>
    </linearGradient>
    <radialGradient id="halo" cx="0.5" cy="0.42" r="0.55">
      <stop offset="0" stop-color="#8ef2ae" stop-opacity="0.55"/>
      <stop offset="0.55" stop-color="#8ef2ae" stop-opacity="0.18"/>
      <stop offset="1" stop-color="#8ef2ae" stop-opacity="0"/>
    </radialGradient>
    <linearGradient id="blade" x1="0" y1="0" x2="1" y2="0">
      <stop offset="0" stop-color="#ffffff"/>
      <stop offset="0.5" stop-color="#8ef2ae"/>
      <stop offset="1" stop-color="#2e6b4f"/>
    </linearGradient>
    <linearGradient id="cloak" x1="0" y1="0" x2="0" y2="1">
      <stop offset="0" stop-color="#221a3c"/>
      <stop offset="1" stop-color="#120e22"/>
    </linearGradient>
    <radialGradient id="vig" cx="0.5" cy="0.45" r="0.75">
      <stop offset="0.6" stop-color="#000" stop-opacity="0"/>
      <stop offset="1" stop-color="#000" stop-opacity="0.55"/>
    </radialGradient>
    <filter id="glowF" x="-80%" y="-80%" width="260%" height="260%">
      <feGaussianBlur stdDeviation="6" result="b"/>
      <feMerge><feMergeNode in="b"/><feMergeNode in="SourceGraphic"/></feMerge>
    </filter>
    <filter id="glowS" x="-40%" y="-40%" width="180%" height="180%">
      <feGaussianBlur stdDeviation="3" result="b"/>
      <feMerge><feMergeNode in="b"/><feMergeNode in="SourceGraphic"/></feMerge>
    </filter>
    <filter id="soft" x="-30%" y="-30%" width="160%" height="160%">
      <feGaussianBlur stdDeviation="10"/>
    </filter>
  </defs>

  <rect width="640" height="880" fill="url(#bg)"/>
  <path d="M0 610 L150 470 L300 600 L450 480 L640 615 Z" fill="#000" opacity="0.28"/>
  <ellipse cx="320" cy="400" rx="250" ry="270" fill="url(#halo)"/>

  <!-- 地面霧光 -->
  <ellipse cx="320" cy="712" rx="300" ry="58" fill="#8ef2ae" opacity="0.1" filter="url(#soft)"/>

  <!-- 人物剪影 -->
  <g>
    <path d="M320 268 C246 284 210 356 200 470 C190 588 206 648 228 672 L412 672 C434 648 450 588 440 470 C430 356 394 284 320 268 Z"
          fill="url(#cloak)"/>
    <path d="M376 262 C416 310 442 386 440 470 C438 520 432 560 424 592"
          stroke="#8ef2ae" stroke-width="7" fill="none" opacity="0.5" filter="url(#glowS)" stroke-linecap="round"/>
    
    <circle cx="320" cy="298" r="60" fill="url(#cloak)"/>
    <ellipse cx="320" cy="312" rx="42" ry="47" fill="#0c0918"/>
    <circle cx="301" cy="314" r="8" fill="#8ef2ae" filter="url(#glowF)"/>
    <circle cx="339" cy="314" r="8" fill="#8ef2ae" filter="url(#glowF)"/>
    
      <circle cx="272" cy="248" r="24" fill="#241b3d"/>
      <circle cx="368" cy="248" r="24" fill="#241b3d"/>
      <circle cx="272" cy="248" r="11" fill="#8ef2ae" opacity="0.4"/>
      <circle cx="368" cy="248" r="11" fill="#8ef2ae" opacity="0.4"/>
  </g>
  
    <g>
      <rect x="432" y="330" width="13" height="330" rx="6" fill="#241b3d"/>
      <rect x="432" y="330" width="13" height="330" rx="6" fill="none" stroke="#8ef2ae" stroke-width="2" opacity="0.35"/>
      <circle cx="438" cy="308" r="30" fill="#8ef2ae" opacity="0.95" filter="url(#glowF)"/>
      <circle cx="438" cy="308" r="14" fill="#fff" opacity="0.9"/>
      <circle cx="438" cy="308" r="44" fill="none" stroke="#8ef2ae" stroke-width="3" opacity="0.4"/>
    </g>
  <circle cx="347" cy="381" r="2.2" fill="#d8ffb0" opacity="0.20"/><circle cx="481" cy="295" r="3.5" fill="#d8ffb0" opacity="0.44"/><circle cx="599" cy="511" r="3.8" fill="#d8ffb0" opacity="0.66"/><circle cx="596" cy="139" r="1.7" fill="#d8ffb0" opacity="0.22"/><circle cx="79" cy="279" r="4.2" fill="#d8ffb0" opacity="0.66"/><circle cx="96" cy="391" r="4.9" fill="#d8ffb0" opacity="0.25"/><circle cx="133" cy="342" r="2.7" fill="#d8ffb0" opacity="0.23"/><circle cx="421" cy="574" r="4.4" fill="#d8ffb0" opacity="0.23"/><circle cx="150" cy="174" r="4.3" fill="#d8ffb0" opacity="0.63"/><circle cx="243" cy="573" r="3.3" fill="#d8ffb0" opacity="0.37"/><circle cx="453" cy="568" r="2.0" fill="#d8ffb0" opacity="0.31"/><circle cx="258" cy="302" r="2.3" fill="#d8ffb0" opacity="0.57"/><circle cx="330" cy="168" r="4.8" fill="#d8ffb0" opacity="0.48"/><circle cx="329" cy="605" r="4.5" fill="#d8ffb0" opacity="0.35"/>
  <rect width="640" height="880" fill="url(#vig)"/>
</svg>
